<mxfile host="app.diagrams.net" modified="2023-05-22T16:49:58.534Z" agent="Mozilla/5.0 (Windows NT 10.0; Win64; x64) AppleWebKit/537.36 (KHTML, like Gecko) Chrome/113.0.0.0 Safari/537.36" etag="G0ofN-y1756CZoiAR84N" version="21.3.2" type="github">
  <diagram name="Page-1" id="5gD9S_qfb3yua5OunotD">
    <mxGraphModel dx="1434" dy="756" grid="1" gridSize="10" guides="1" tooltips="1" connect="1" arrows="1" fold="1" page="1" pageScale="1" pageWidth="850" pageHeight="1100" background="#FFFFFF" math="0" shadow="0">
      <root>
        <mxCell id="0" />
        <mxCell id="1" parent="0" />
        <mxCell id="IvDvG7JR_VM2cNuA_NT8-2" value="" style="rounded=1;whiteSpace=wrap;html=1;labelBackgroundColor=none;sketch=1;curveFitting=1;jiggle=2;gradientColor=none;gradientDirection=east;" parent="1" vertex="1">
          <mxGeometry x="10" y="10" width="830" height="760" as="geometry" />
        </mxCell>
        <mxCell id="G5nZQSFpa2zoZMKRh_J8-22" value="Business" style="swimlane;fontStyle=1;align=center;verticalAlign=top;childLayout=stackLayout;horizontal=1;startSize=26;horizontalStack=0;resizeParent=1;resizeParentMax=0;resizeLast=0;collapsible=1;marginBottom=0;whiteSpace=wrap;html=1;rounded=1;labelBackgroundColor=none;fillStyle=solid;sketch=1;curveFitting=1;jiggle=2;swimlaneFillColor=#000000;fillColor=#6a00ff;fontColor=#ffffff;strokeColor=#3700CC;" parent="1" vertex="1" collapsed="1">
          <mxGeometry x="40" y="70" width="90" height="30" as="geometry">
            <mxRectangle x="40" y="70" width="210" height="270" as="alternateBounds" />
          </mxGeometry>
        </mxCell>
        <mxCell id="G5nZQSFpa2zoZMKRh_J8-26" value="+ name: string" style="text;strokeColor=none;fillColor=none;align=left;verticalAlign=top;spacingLeft=4;spacingRight=4;overflow=hidden;rotatable=0;points=[[0,0.5],[1,0.5]];portConstraint=eastwest;whiteSpace=wrap;html=1;rounded=1;labelBackgroundColor=none;sketch=1;curveFitting=1;jiggle=2;" parent="G5nZQSFpa2zoZMKRh_J8-22" vertex="1">
          <mxGeometry y="26" width="210" height="26" as="geometry" />
        </mxCell>
        <mxCell id="G5nZQSFpa2zoZMKRh_J8-27" value="+ address: string" style="text;strokeColor=none;fillColor=none;align=left;verticalAlign=top;spacingLeft=4;spacingRight=4;overflow=hidden;rotatable=0;points=[[0,0.5],[1,0.5]];portConstraint=eastwest;whiteSpace=wrap;html=1;rounded=1;labelBackgroundColor=none;sketch=1;curveFitting=1;jiggle=2;" parent="G5nZQSFpa2zoZMKRh_J8-22" vertex="1">
          <mxGeometry y="52" width="210" height="26" as="geometry" />
        </mxCell>
        <mxCell id="G5nZQSFpa2zoZMKRh_J8-67" value="+ phoneNumber: string" style="text;strokeColor=none;fillColor=none;align=left;verticalAlign=top;spacingLeft=4;spacingRight=4;overflow=hidden;rotatable=0;points=[[0,0.5],[1,0.5]];portConstraint=eastwest;whiteSpace=wrap;html=1;rounded=1;labelBackgroundColor=none;sketch=1;curveFitting=1;jiggle=2;" parent="G5nZQSFpa2zoZMKRh_J8-22" vertex="1">
          <mxGeometry y="78" width="210" height="26" as="geometry" />
        </mxCell>
        <mxCell id="G5nZQSFpa2zoZMKRh_J8-28" value="+ history: bio" style="text;strokeColor=none;fillColor=none;align=left;verticalAlign=top;spacingLeft=4;spacingRight=4;overflow=hidden;rotatable=0;points=[[0,0.5],[1,0.5]];portConstraint=eastwest;whiteSpace=wrap;html=1;rounded=1;labelBackgroundColor=none;sketch=1;curveFitting=1;jiggle=2;" parent="G5nZQSFpa2zoZMKRh_J8-22" vertex="1">
          <mxGeometry y="104" width="210" height="26" as="geometry" />
        </mxCell>
        <mxCell id="G5nZQSFpa2zoZMKRh_J8-31" value="+ images: Images" style="text;strokeColor=none;fillColor=none;align=left;verticalAlign=top;spacingLeft=4;spacingRight=4;overflow=hidden;rotatable=0;points=[[0,0.5],[1,0.5]];portConstraint=eastwest;whiteSpace=wrap;html=1;rounded=1;labelBackgroundColor=none;sketch=1;curveFitting=1;jiggle=2;" parent="G5nZQSFpa2zoZMKRh_J8-22" vertex="1">
          <mxGeometry y="130" width="210" height="26" as="geometry" />
        </mxCell>
        <mxCell id="G5nZQSFpa2zoZMKRh_J8-29" value="+ owner: string" style="text;strokeColor=none;fillColor=none;align=left;verticalAlign=top;spacingLeft=4;spacingRight=4;overflow=hidden;rotatable=0;points=[[0,0.5],[1,0.5]];portConstraint=eastwest;whiteSpace=wrap;html=1;rounded=1;labelBackgroundColor=none;sketch=1;curveFitting=1;jiggle=2;" parent="G5nZQSFpa2zoZMKRh_J8-22" vertex="1">
          <mxGeometry y="156" width="210" height="26" as="geometry" />
        </mxCell>
        <mxCell id="G5nZQSFpa2zoZMKRh_J8-30" value="+ ownerImage: img&lt;br&gt;" style="text;strokeColor=none;fillColor=none;align=left;verticalAlign=top;spacingLeft=4;spacingRight=4;overflow=hidden;rotatable=0;points=[[0,0.5],[1,0.5]];portConstraint=eastwest;whiteSpace=wrap;html=1;rounded=1;labelBackgroundColor=none;sketch=1;curveFitting=1;jiggle=2;" parent="G5nZQSFpa2zoZMKRh_J8-22" vertex="1">
          <mxGeometry y="182" width="210" height="26" as="geometry" />
        </mxCell>
        <mxCell id="G5nZQSFpa2zoZMKRh_J8-42" value="+ customerRatings: BusinessRatings" style="text;strokeColor=none;fillColor=none;align=left;verticalAlign=top;spacingLeft=4;spacingRight=4;overflow=hidden;rotatable=0;points=[[0,0.5],[1,0.5]];portConstraint=eastwest;whiteSpace=wrap;html=1;rounded=1;labelBackgroundColor=none;sketch=1;curveFitting=1;jiggle=2;" parent="G5nZQSFpa2zoZMKRh_J8-22" vertex="1">
          <mxGeometry y="208" width="210" height="28" as="geometry" />
        </mxCell>
        <mxCell id="G5nZQSFpa2zoZMKRh_J8-24" value="" style="line;strokeWidth=1;fillColor=none;align=left;verticalAlign=middle;spacingTop=-1;spacingLeft=3;spacingRight=3;rotatable=0;labelPosition=right;points=[];portConstraint=eastwest;rounded=1;labelBackgroundColor=none;sketch=1;curveFitting=1;jiggle=2;" parent="G5nZQSFpa2zoZMKRh_J8-22" vertex="1">
          <mxGeometry y="236" width="210" height="8" as="geometry" />
        </mxCell>
        <mxCell id="G5nZQSFpa2zoZMKRh_J8-25" value="+ constructor()" style="text;strokeColor=none;fillColor=none;align=left;verticalAlign=top;spacingLeft=4;spacingRight=4;overflow=hidden;rotatable=0;points=[[0,0.5],[1,0.5]];portConstraint=eastwest;whiteSpace=wrap;html=1;rounded=1;labelBackgroundColor=none;sketch=1;curveFitting=1;jiggle=2;" parent="G5nZQSFpa2zoZMKRh_J8-22" vertex="1">
          <mxGeometry y="244" width="210" height="26" as="geometry" />
        </mxCell>
        <mxCell id="G5nZQSFpa2zoZMKRh_J8-34" value="Extends" style="endArrow=block;endSize=16;endFill=0;html=1;rounded=1;exitX=0;exitY=0.5;exitDx=0;exitDy=0;labelBackgroundColor=none;fontColor=default;editable=1;sketch=1;curveFitting=1;jiggle=2;movable=1;resizable=1;rotatable=1;deletable=1;locked=0;connectable=1;edgeStyle=orthogonalEdgeStyle;entryX=1;entryY=0.5;entryDx=0;entryDy=0;" parent="1" source="G5nZQSFpa2zoZMKRh_J8-36" target="G5nZQSFpa2zoZMKRh_J8-31" edge="1">
          <mxGeometry width="160" relative="1" as="geometry">
            <mxPoint x="460" y="490" as="sourcePoint" />
            <mxPoint x="345" y="40" as="targetPoint" />
          </mxGeometry>
        </mxCell>
        <mxCell id="G5nZQSFpa2zoZMKRh_J8-62" value="" style="endArrow=diamondThin;endFill=1;endSize=24;html=1;exitX=0;exitY=0.5;exitDx=0;exitDy=0;rounded=1;shadow=0;jumpStyle=none;jumpSize=6;editable=1;movable=1;resizable=1;rotatable=1;deletable=1;locked=0;connectable=1;labelBackgroundColor=none;fontColor=default;edgeStyle=orthogonalEdgeStyle;sketch=1;curveFitting=1;jiggle=2;entryX=1;entryY=0.5;entryDx=0;entryDy=0;" parent="1" source="G5nZQSFpa2zoZMKRh_J8-57" target="G5nZQSFpa2zoZMKRh_J8-36" edge="1">
          <mxGeometry width="160" relative="1" as="geometry">
            <mxPoint x="340" y="280" as="sourcePoint" />
            <mxPoint x="500" y="280" as="targetPoint" />
          </mxGeometry>
        </mxCell>
        <mxCell id="G5nZQSFpa2zoZMKRh_J8-71" value="Cursory Restaurant UML" style="text;strokeColor=#3700CC;fillColor=#6a00ff;html=1;fontSize=20;fontStyle=1;verticalAlign=middle;align=center;fontFamily=Architects Daughter;labelBackgroundColor=none;sketch=1;curveFitting=1;jiggle=2;fontColor=#ffffff;" parent="1" vertex="1">
          <mxGeometry x="250" y="10" width="340" height="40" as="geometry" />
        </mxCell>
        <mxCell id="-ZuLLY-UklYOzqyny9P1-4" value="" style="group" vertex="1" connectable="0" parent="1">
          <mxGeometry x="230" y="100" width="270" height="120" as="geometry" />
        </mxCell>
        <mxCell id="G5nZQSFpa2zoZMKRh_J8-18" value="Restaurant" style="swimlane;fontStyle=1;align=center;verticalAlign=top;childLayout=stackLayout;horizontal=1;startSize=26;horizontalStack=0;resizeParent=1;resizeParentMax=0;resizeLast=0;collapsible=1;marginBottom=0;whiteSpace=wrap;html=1;rounded=1;labelBackgroundColor=none;sketch=1;curveFitting=1;jiggle=2;swimlaneFillColor=#000000;fillColor=#6a00ff;fontColor=#ffffff;strokeColor=#3700CC;fillStyle=solid;" parent="-ZuLLY-UklYOzqyny9P1-4" vertex="1">
          <mxGeometry width="250" height="120" as="geometry">
            <mxRectangle x="330" y="130" width="100" height="30" as="alternateBounds" />
          </mxGeometry>
        </mxCell>
        <mxCell id="G5nZQSFpa2zoZMKRh_J8-35" value="+ menu: List" style="text;strokeColor=none;fillColor=none;align=left;verticalAlign=top;spacingLeft=4;spacingRight=4;overflow=hidden;rotatable=0;points=[[0,0.5],[1,0.5]];portConstraint=eastwest;whiteSpace=wrap;html=1;rounded=1;labelBackgroundColor=none;sketch=1;curveFitting=1;jiggle=2;" parent="G5nZQSFpa2zoZMKRh_J8-18" vertex="1">
          <mxGeometry y="26" width="250" height="26" as="geometry" />
        </mxCell>
        <mxCell id="G5nZQSFpa2zoZMKRh_J8-36" value="+ category: FoodRestaurantCategoryEnum" style="text;strokeColor=none;fillColor=none;align=left;verticalAlign=top;spacingLeft=4;spacingRight=4;overflow=hidden;rotatable=0;points=[[0,0.5],[1,0.5]];portConstraint=eastwest;whiteSpace=wrap;html=1;rounded=1;labelBackgroundColor=none;sketch=1;curveFitting=1;jiggle=2;" parent="G5nZQSFpa2zoZMKRh_J8-18" vertex="1">
          <mxGeometry y="52" width="250" height="28" as="geometry" />
        </mxCell>
        <mxCell id="G5nZQSFpa2zoZMKRh_J8-20" value="" style="line;strokeWidth=1;fillColor=none;align=left;verticalAlign=middle;spacingTop=-1;spacingLeft=3;spacingRight=3;rotatable=0;labelPosition=right;points=[];portConstraint=eastwest;rounded=1;labelBackgroundColor=none;sketch=1;curveFitting=1;jiggle=2;" parent="G5nZQSFpa2zoZMKRh_J8-18" vertex="1">
          <mxGeometry y="80" width="250" height="8" as="geometry" />
        </mxCell>
        <mxCell id="G5nZQSFpa2zoZMKRh_J8-41" value="+ constructor()" style="text;strokeColor=none;fillColor=none;align=left;verticalAlign=top;spacingLeft=4;spacingRight=4;overflow=hidden;rotatable=0;points=[[0,0.5],[1,0.5]];portConstraint=eastwest;whiteSpace=wrap;html=1;rounded=1;labelBackgroundColor=none;sketch=1;curveFitting=1;jiggle=2;" parent="G5nZQSFpa2zoZMKRh_J8-18" vertex="1">
          <mxGeometry y="88" width="250" height="32" as="geometry" />
        </mxCell>
        <mxCell id="-ZuLLY-UklYOzqyny9P1-2" value="&lt;pre&gt;&lt;font style=&quot;font-size: 15px;&quot;&gt;1&lt;/font&gt;&lt;/pre&gt;" style="text;html=1;strokeColor=none;fillColor=none;align=center;verticalAlign=middle;whiteSpace=wrap;rounded=0;fontSize=11;fontFamily=Architects Daughter;labelBorderColor=none;fontColor=#FF8000;" vertex="1" parent="-ZuLLY-UklYOzqyny9P1-4">
          <mxGeometry x="250" y="40" width="20" height="20" as="geometry" />
        </mxCell>
        <mxCell id="-ZuLLY-UklYOzqyny9P1-5" value="" style="group" vertex="1" connectable="0" parent="1">
          <mxGeometry x="530" y="100" width="180" height="86" as="geometry" />
        </mxCell>
        <mxCell id="G5nZQSFpa2zoZMKRh_J8-57" value="Menu" style="swimlane;fontStyle=1;align=center;verticalAlign=top;childLayout=stackLayout;horizontal=1;startSize=26;horizontalStack=0;resizeParent=1;resizeParentMax=0;resizeLast=0;collapsible=1;marginBottom=0;whiteSpace=wrap;html=1;rounded=1;labelBackgroundColor=none;sketch=1;curveFitting=1;jiggle=2;swimlaneFillColor=#000000;fillColor=#6a00ff;fontColor=#ffffff;strokeColor=#3700CC;fillStyle=solid;" parent="-ZuLLY-UklYOzqyny9P1-5" vertex="1">
          <mxGeometry x="20" width="160" height="86" as="geometry">
            <mxRectangle x="590" y="150" width="70" height="30" as="alternateBounds" />
          </mxGeometry>
        </mxCell>
        <mxCell id="G5nZQSFpa2zoZMKRh_J8-58" value="+ contents: MenuContents" style="text;strokeColor=none;fillColor=none;align=left;verticalAlign=top;spacingLeft=4;spacingRight=4;overflow=hidden;rotatable=0;points=[[0,0.5],[1,0.5]];portConstraint=eastwest;whiteSpace=wrap;html=1;rounded=1;labelBackgroundColor=none;sketch=1;curveFitting=1;jiggle=2;" parent="G5nZQSFpa2zoZMKRh_J8-57" vertex="1">
          <mxGeometry y="26" width="160" height="26" as="geometry" />
        </mxCell>
        <mxCell id="G5nZQSFpa2zoZMKRh_J8-59" value="" style="line;strokeWidth=1;fillColor=none;align=left;verticalAlign=middle;spacingTop=-1;spacingLeft=3;spacingRight=3;rotatable=0;labelPosition=right;points=[];portConstraint=eastwest;rounded=1;labelBackgroundColor=none;sketch=1;curveFitting=1;jiggle=2;" parent="G5nZQSFpa2zoZMKRh_J8-57" vertex="1">
          <mxGeometry y="52" width="160" height="8" as="geometry" />
        </mxCell>
        <mxCell id="G5nZQSFpa2zoZMKRh_J8-60" value="+ constructor()" style="text;strokeColor=none;fillColor=none;align=left;verticalAlign=top;spacingLeft=4;spacingRight=4;overflow=hidden;rotatable=0;points=[[0,0.5],[1,0.5]];portConstraint=eastwest;whiteSpace=wrap;html=1;rounded=1;labelBackgroundColor=none;sketch=1;curveFitting=1;jiggle=2;" parent="G5nZQSFpa2zoZMKRh_J8-57" vertex="1">
          <mxGeometry y="60" width="160" height="26" as="geometry" />
        </mxCell>
        <mxCell id="-ZuLLY-UklYOzqyny9P1-3" value="&lt;pre&gt;&lt;font style=&quot;font-size: 15px;&quot;&gt;*&lt;/font&gt;&lt;/pre&gt;" style="text;html=1;strokeColor=none;fillColor=none;align=center;verticalAlign=middle;whiteSpace=wrap;rounded=0;fontSize=11;fontFamily=Architects Daughter;labelBorderColor=none;fontColor=#FF8000;" vertex="1" parent="-ZuLLY-UklYOzqyny9P1-5">
          <mxGeometry y="47" width="20" height="20" as="geometry" />
        </mxCell>
      </root>
    </mxGraphModel>
  </diagram>
</mxfile>
